<svg width="33" height="33" fill="none" xmlns="http://www.w3.org/2000/svg"><path d="M31.716.811H2.258a1.28 1.28 0 00-1.28 1.28v29.46c0 .708.572 1.28 1.28 1.28h29.46a1.28 1.28 0 001.28-1.28V2.091a1.28 1.28 0 00-1.28-1.28zM10.476 28.097H5.724V12.815h4.75v15.282zM8.1 10.725a2.754 2.754 0 110-5.507 2.754 2.754 0 010 5.508zm20.161 17.372h-4.747v-7.433c0-1.773-.032-4.05-2.47-4.05-2.469 0-2.85 1.928-2.85 3.922v7.56h-4.742V12.816h4.555v2.09h.064c.632-1.202 2.181-2.47 4.495-2.47 4.81 0 5.695 3.166 5.695 7.28v8.382z" fill="#EF2779"/></svg>