<svg width="26" height="33" fill="none" xmlns="http://www.w3.org/2000/svg"><g clip-path="url(#prefix__clip0_67_7968)" fill="#EF2779"><path d="M13.001 19.482a6.34 6.34 0 006.334-6.334A6.34 6.34 0 0013 6.815a6.34 6.34 0 00-6.333 6.333 6.34 6.34 0 006.333 6.334zm0-9.5a3.17 3.17 0 013.167 3.166 3.17 3.17 0 01-3.167 3.167 3.17 3.17 0 01-3.166-3.167A3.17 3.17 0 0113 9.982z"/><path d="M11.748 31.854a1.58 1.58 0 001.837 0c.481-.34 11.794-8.51 11.748-18.706 0-6.984-5.682-12.667-12.666-12.667S0 6.164 0 13.141c-.046 10.204 11.267 18.372 11.748 18.713zm.919-28.206c5.24 0 9.5 4.26 9.5 9.508.033 7.027-6.948 13.336-9.5 15.406-2.55-2.071-9.533-8.382-9.5-15.414 0-5.24 4.26-9.5 9.5-9.5z"/></g><defs><clipPath id="prefix__clip0_67_7968"><path fill="#fff" transform="translate(0 .315)" d="M0 0h26v32H0z"/></clipPath></defs></svg>