<svg width="16" height="16" fill="none" xmlns="http://www.w3.org/2000/svg"><path d="M6.524 15.868c1.499-.622 1.17-2.338.413-3.423-.75-1.111-1.785-1.876-2.83-2.614A8.425 8.425 0 012.138 8c-.235-.294-.715-.836-.227-.943.497-.106 1.356.41 1.794.605.766.338 1.523.729 2.23 1.191l.851-1.511c-1.313-.916-2.997-1.725-4.563-1.965C1.329 5.235.386 5.43.083 6.453c-.27.88.16 1.769.649 2.463 1.153 1.627 2.946 2.409 4.285 3.814.286.293.631.64.8 1.049.177.391.135.418-.261.418-1.044 0-2.35-.863-3.2-1.432l-.85 1.512c1.288.836 3.444 2.143 5.018 1.591zm9.337-13.87a.513.513 0 000-.702L14.767.14a.46.46 0 00-.329-.14.46.46 0 00-.328.14l-.859.907 1.751 1.85.86-.899zM7.576 7.04v1.85h1.752l5.178-5.468-1.752-1.85L7.576 7.04z" fill="#fff"/></svg>